<svg width="48" height="48" viewBox="0 0 48 48" fill="none" xmlns="http://www.w3.org/2000/svg">
<path d="M35.1339 17.5187C34.7928 16.5141 34.1453 15.6418 33.2825 15.0245C32.4197 14.4072 31.385 14.076 30.3241 14.0775H26.25V2.02051L24.5378 2.2651C20.6539 2.81991 17.6285 4.7881 15.5466 8.1151C14.0455 10.5133 13.3477 13.1589 13.0239 15.1375C10.7883 16.8577 8.84333 19.2261 7.23599 22.1875C5.8814 24.683 4.76005 27.6078 3.90299 30.8809C2.45483 36.4112 2.2588 40.9985 2.25121 41.191L2.25046 46.5H5.24999V41.2841C5.28749 40.5125 6.23211 23.6263 15.2842 17.1964L15.8149 16.8194L15.902 16.1743C16.3535 12.8344 17.9135 7.31795 23.25 5.62229V17.0775H30.3241C30.7578 17.0762 31.1811 17.211 31.5342 17.4628C31.8874 17.7146 32.1527 18.0708 32.2928 18.4813C33.4888 22.0116 35.5438 26.4292 38.7465 28.5052L37.7833 32.1172C37.448 33.4053 36.6854 34.5415 35.6203 35.3397C34.5552 36.138 33.2506 36.551 31.9202 36.5112C29.2325 36.4306 26.4352 36.7812 23.6056 37.5529L22.5 37.8543V46.5H25.5V40.1689C27.5731 39.6791 29.7005 39.4576 31.83 39.5098C33.8354 39.5651 35.8008 38.9414 37.4074 37.7399C39.0141 36.5384 40.1678 34.8294 40.6817 32.8901L42.2837 26.8825L41.0906 26.3712C38.8594 25.415 36.744 22.2711 35.1339 17.5187V17.5187Z" fill="white"/>
</svg>
