<svg width="48" height="48" viewBox="0 0 48 48" fill="none" xmlns="http://www.w3.org/2000/svg">
<path fill-rule="evenodd" clip-rule="evenodd" d="M24 2C11.85 2 2 11.85 2 24C2 36.15 11.85 46 24 46C36.15 46 46 36.15 46 24C46 11.85 36.15 2 24 2ZM19.586 17.414C19.2217 17.0368 19.0201 16.5316 19.0247 16.0072C19.0292 15.4828 19.2395 14.9812 19.6104 14.6104C19.9812 14.2395 20.4828 14.0292 21.0072 14.0247C21.5316 14.0201 22.0368 14.2217 22.414 14.586L30.414 22.586C30.7889 22.9611 30.9996 23.4697 30.9996 24C30.9996 24.5303 30.7889 25.0389 30.414 25.414L22.414 33.414C22.0368 33.7783 21.5316 33.9799 21.0072 33.9753C20.4828 33.9708 19.9812 33.7605 19.6104 33.3896C19.2395 33.0188 19.0292 32.5172 19.0247 31.9928C19.0201 31.4684 19.2217 30.9632 19.586 30.586L26.172 24L19.586 17.414Z" fill="#253238"/>
</svg>
