<svg width="48" height="48" viewBox="0 0 48 48" fill="none" xmlns="http://www.w3.org/2000/svg">
<path fill-rule="evenodd" clip-rule="evenodd" d="M24 2C36.15 2 46 11.85 46 24C46 36.15 36.15 46 24 46C11.85 46 2 36.15 2 24C2 11.85 11.85 2 24 2ZM28.414 17.414C28.7783 17.0368 28.9799 16.5316 28.9753 16.0072C28.9708 15.4828 28.7605 14.9812 28.3896 14.6104C28.0188 14.2395 27.5172 14.0292 26.9928 14.0247C26.4684 14.0201 25.9632 14.2217 25.586 14.586L17.586 22.586C17.2111 22.9611 17.0004 23.4697 17.0004 24C17.0004 24.5303 17.2111 25.0389 17.586 25.414L25.586 33.414C25.9632 33.7783 26.4684 33.9799 26.9928 33.9753C27.5172 33.9708 28.0188 33.7605 28.3896 33.3896C28.7605 33.0188 28.9708 32.5172 28.9753 31.9928C28.9799 31.4684 28.7783 30.9632 28.414 30.586L21.828 24L28.414 17.414Z" fill="#253238"/>
</svg>
